<svg width="538" height="105" viewBox="0 0 538 105" fill="none" xmlns="http://www.w3.org/2000/svg">
<mask id="mask0_36_30" style="mask-type:luminance" maskUnits="userSpaceOnUse" x="72" y="46" width="36" height="57">
<path d="M72 46.5789H108V102.34H72V46.5789Z" fill="white"/>
</mask>
<g mask="url(#mask0_36_30)">
<path d="M106.757 88.7294L82.7393 47.1266L72.148 65.4967L90.8512 97.8996C92.5387 100.823 95.625 102.496 98.8076 102.496C100.362 102.496 101.938 102.089 103.382 101.252C107.793 98.7064 109.28 93.1184 106.757 88.7294Z" fill="white"/>
</g>
<mask id="mask1_36_30" style="mask-type:luminance" maskUnits="userSpaceOnUse" x="0" y="3" width="93" height="100">
<path d="M0 3H92.8421V102.34H0V3Z" fill="white"/>
</mask>
<g mask="url(#mask1_36_30)">
<path d="M89.9038 24.2787L79.7196 41.9234L69.1061 60.2861L52.7048 88.7072C47.7903 97.2187 38.6201 102.518 28.7911 102.518C18.8141 102.518 9.86596 97.3593 4.86267 88.7072C-0.140624 80.0772 -0.140624 69.7302 4.86267 61.0781L33.5724 11.393C36.5477 6.2343 41.8841 3.14795 47.8347 3.14795C53.7854 3.14795 59.1217 6.2343 62.1193 11.393L63.1554 13.1989L66.1308 18.3355L55.5173 36.6981L47.8347 23.4054L20.7977 70.2483C18.3849 74.4152 19.9836 78.1159 20.7977 79.5073C21.6044 80.9062 23.9951 84.1554 28.8207 84.1554C32.1069 84.1554 35.1933 82.3716 36.8142 79.5073L58.5148 41.9234L69.1283 23.5608L73.9984 15.1085C76.5444 10.7195 82.1546 9.20963 86.5436 11.7557C90.94 14.2795 92.4499 19.8897 89.9038 24.2787Z" fill="white"/>
</g>
<path d="M123.836 59.312C123.836 54 124.924 49.296 127.1 45.2C129.34 41.104 132.348 37.936 136.124 35.696C139.964 33.392 144.188 32.24 148.796 32.24C152.956 32.24 156.572 33.072 159.644 34.736C162.78 36.336 165.276 38.352 167.132 40.784V33.104H178.172V86H167.132V78.128C165.276 80.624 162.748 82.704 159.548 84.368C156.348 86.032 152.7 86.864 148.604 86.864C144.06 86.864 139.9 85.712 136.124 83.408C132.348 81.04 129.34 77.776 127.1 73.616C124.924 69.392 123.836 64.624 123.836 59.312ZM167.132 59.504C167.132 55.856 166.364 52.688 164.828 50C163.356 47.312 161.404 45.264 158.972 43.856C156.54 42.448 153.916 41.744 151.1 41.744C148.284 41.744 145.66 42.448 143.228 43.856C140.796 45.2 138.812 47.216 137.276 49.904C135.804 52.528 135.068 55.664 135.068 59.312C135.068 62.96 135.804 66.16 137.276 68.912C138.812 71.664 140.796 73.776 143.228 75.248C145.724 76.656 148.348 77.36 151.1 77.36C153.916 77.36 156.54 76.656 158.972 75.248C161.404 73.84 163.356 71.792 164.828 69.104C166.364 66.352 167.132 63.152 167.132 59.504ZM235.651 33.104V86H224.707V79.76C222.979 81.936 220.707 83.664 217.891 84.944C215.139 86.16 212.195 86.768 209.059 86.768C204.899 86.768 201.155 85.904 197.827 84.176C194.563 82.448 191.971 79.888 190.051 76.496C188.195 73.104 187.267 69.008 187.267 64.208V33.104H198.115V62.576C198.115 67.312 199.299 70.96 201.667 73.52C204.035 76.016 207.267 77.264 211.363 77.264C215.459 77.264 218.691 76.016 221.059 73.52C223.491 70.96 224.707 67.312 224.707 62.576V33.104H235.651ZM258.059 42.032V71.312C258.059 73.296 258.507 74.736 259.403 75.632C260.363 76.464 261.963 76.88 264.203 76.88H270.923V86H262.283C257.355 86 253.579 84.848 250.955 82.544C248.331 80.24 247.019 76.496 247.019 71.312V42.032H240.779V33.104H247.019V19.952H258.059V33.104H270.923V42.032H258.059ZM299.153 86.864C294.161 86.864 289.649 85.744 285.617 83.504C281.585 81.2 278.417 78 276.113 73.904C273.809 69.744 272.657 64.944 272.657 59.504C272.657 54.128 273.841 49.36 276.209 45.2C278.577 41.04 281.809 37.84 285.905 35.6C290.001 33.36 294.577 32.24 299.633 32.24C304.689 32.24 309.265 33.36 313.361 35.6C317.457 37.84 320.689 41.04 323.057 45.2C325.425 49.36 326.609 54.128 326.609 59.504C326.609 64.88 325.393 69.648 322.961 73.808C320.529 77.968 317.201 81.2 312.977 83.504C308.817 85.744 304.209 86.864 299.153 86.864ZM299.153 77.36C301.969 77.36 304.593 76.688 307.025 75.344C309.521 74 311.537 71.984 313.073 69.296C314.609 66.608 315.377 63.344 315.377 59.504C315.377 55.664 314.641 52.432 313.169 49.808C311.697 47.12 309.745 45.104 307.313 43.76C304.881 42.416 302.257 41.744 299.441 41.744C296.625 41.744 294.001 42.416 291.569 43.76C289.201 45.104 287.313 47.12 285.905 49.808C284.497 52.432 283.793 55.664 283.793 59.504C283.793 65.2 285.233 69.616 288.113 72.752C291.057 75.824 294.737 77.36 299.153 77.36ZM343.572 14.96V86H332.628V14.96H343.572ZM401.621 58.256C401.621 60.24 401.493 62.032 401.237 63.632H360.821C361.141 67.856 362.709 71.248 365.525 73.808C368.341 76.368 371.797 77.648 375.893 77.648C381.781 77.648 385.941 75.184 388.373 70.256H400.181C398.581 75.12 395.669 79.12 391.445 82.256C387.285 85.328 382.101 86.864 375.893 86.864C370.837 86.864 366.293 85.744 362.261 83.504C358.293 81.2 355.157 78 352.853 73.904C350.613 69.744 349.493 64.944 349.493 59.504C349.493 54.064 350.581 49.296 352.757 45.2C354.997 41.04 358.101 37.84 362.069 35.6C366.101 33.36 370.709 32.24 375.893 32.24C380.885 32.24 385.333 33.328 389.237 35.504C393.141 37.68 396.181 40.752 398.357 44.72C400.533 48.624 401.621 53.136 401.621 58.256ZM390.197 54.8C390.133 50.768 388.693 47.536 385.877 45.104C383.061 42.672 379.573 41.456 375.413 41.456C371.637 41.456 368.405 42.672 365.717 45.104C363.029 47.472 361.429 50.704 360.917 54.8H390.197ZM403.943 59.312C403.943 54 405.031 49.296 407.207 45.2C409.447 41.104 412.455 37.936 416.231 35.696C420.071 33.392 424.295 32.24 428.903 32.24C433.063 32.24 436.679 33.072 439.751 34.736C442.887 36.336 445.383 38.352 447.239 40.784V33.104H458.279V86H447.239V78.128C445.383 80.624 442.855 82.704 439.655 84.368C436.455 86.032 432.807 86.864 428.711 86.864C424.167 86.864 420.007 85.712 416.231 83.408C412.455 81.04 409.447 77.776 407.207 73.616C405.031 69.392 403.943 64.624 403.943 59.312ZM447.239 59.504C447.239 55.856 446.471 52.688 444.935 50C443.463 47.312 441.511 45.264 439.079 43.856C436.647 42.448 434.023 41.744 431.207 41.744C428.391 41.744 425.767 42.448 423.335 43.856C420.903 45.2 418.919 47.216 417.383 49.904C415.911 52.528 415.175 55.664 415.175 59.312C415.175 62.96 415.911 66.16 417.383 68.912C418.919 71.664 420.903 73.776 423.335 75.248C425.831 76.656 428.455 77.36 431.207 77.36C434.023 77.36 436.647 76.656 439.079 75.248C441.511 73.84 443.463 71.792 444.935 69.104C446.471 66.352 447.239 63.152 447.239 59.504ZM464.205 59.312C464.205 54 465.293 49.296 467.469 45.2C469.709 41.104 472.717 37.936 476.493 35.696C480.333 33.392 484.589 32.24 489.261 32.24C492.717 32.24 496.109 33.008 499.437 34.544C502.829 36.016 505.517 38 507.501 40.496V14.96H518.541V86H507.501V78.032C505.709 80.592 503.213 82.704 500.013 84.368C496.877 86.032 493.261 86.864 489.165 86.864C484.557 86.864 480.333 85.712 476.493 83.408C472.717 81.04 469.709 77.776 467.469 73.616C465.293 69.392 464.205 64.624 464.205 59.312ZM507.501 59.504C507.501 55.856 506.733 52.688 505.197 50C503.725 47.312 501.773 45.264 499.341 43.856C496.909 42.448 494.285 41.744 491.469 41.744C488.653 41.744 486.029 42.448 483.597 43.856C481.165 45.2 479.181 47.216 477.645 49.904C476.173 52.528 475.437 55.664 475.437 59.312C475.437 62.96 476.173 66.16 477.645 68.912C479.181 71.664 481.165 73.776 483.597 75.248C486.093 76.656 488.717 77.36 491.469 77.36C494.285 77.36 496.909 76.656 499.341 75.248C501.773 73.84 503.725 71.792 505.197 69.104C506.733 66.352 507.501 63.152 507.501 59.504Z" fill="white"/>
</svg>
